<?xml version="1.0" encoding="utf-8"?>
<!-- Generator: Adobe Illustrator 27.3.1, SVG Export Plug-In . SVG Version: 6.00 Build 0)  -->
<svg version="1.1" id="Layer_1" xmlns="http://www.w3.org/2000/svg" xmlns:xlink="http://www.w3.org/1999/xlink" x="0px" y="0px"
	 viewBox="0 0 1105 782.7" style="enable-background:new 0 0 1105 782.7;" xml:space="preserve">
<style type="text/css">
	.st0{fill:#F0F0F0;}
	.st1{fill:#E0E0E0;}
	.st2{fill:#27DEBF;}
	.st3{opacity:0.15;}
	.st4{fill:#FFFFFF;}
	.st5{fill:#EBEBEB;}
	.st6{opacity:0.9;fill:#27DEBF;}
	.st7{opacity:0.7;}
	.st8{opacity:0.8;}
	.st9{opacity:0.2;fill:#27DEBF;}
	.st10{fill:#455A64;}
	.st11{opacity:0.8;fill:#27DEBF;}
	.st12{opacity:0.2;}
	.st13{fill:#FAFAFA;}
	.st14{fill:#FFBDA7;}
	.st15{font-family:'Rubik-Bold';}
	.st16{font-size:91.3498px;}
	.st17{font-size:15.1034px;}
	.st18{font-size:16.3563px;}
	.st19{opacity:0.1;}
	.st20{font-size:37.7871px;}
	.st21{letter-spacing:1.8;}
	.st22{font-size:44.0157px;}
	.st23{opacity:0.35;}
	.st24{opacity:0.25;}
	.st25{opacity:0.45;}
	.st26{opacity:0.55;}
	.st27{fill:#B16668;}
	.st28{fill:#263238;}
	.st29{fill:#9A4A4D;}
</style>
<g>
	<ellipse id="Floor_1_" class="st0" cx="552.5" cy="555.5" rx="424.5" ry="223.3"/>
	<ellipse id="Shadow_12_" class="st1" cx="759.5" cy="601" rx="125.4" ry="72.4"/>
	<path id="Shadow_2_" class="st1" d="M183.7,610.4l7.2,4.1c2.3,1.3,5.9,1.3,8.2,0L628,366.9c2.3-1.3,2.3-3.4,0-4.7l-7.2-4.1
		c-2.3-1.3-5.9-1.3-8.2,0L183.7,605.6C181.5,607,181.5,609.1,183.7,610.4z"/>
	<g id="Plants_3_">
		<g id="XMLID_119_">
			<g id="XMLID_122_">
				<path id="XMLID_124_" class="st2" d="M815.4,537.4c0,0,0.3-31.2,9.6-56.5c9.4-25.2,25.9-43.3,43.8-48.7
					c17.9-5.4,36.8,13,19.9,28.7c-17,15.7-49,35-55.6,81.5L815.4,537.4z"/>
				<path id="XMLID_123_" class="st3" d="M815.4,537.4c0,0,0.3-31.2,9.6-56.5c9.4-25.2,25.9-43.3,43.8-48.7
					c17.9-5.4,36.8,13,19.9,28.7c-17,15.7-49,35-55.6,81.5L815.4,537.4z"/>
			</g>
			<g id="XMLID_120_">
				<path id="XMLID_121_" class="st4" d="M822.9,532.6c-0.1,0-0.1,0-0.2,0c-0.6-0.1-1-0.6-0.9-1.2c7.4-53.9,40-84,56.2-92.3
					c0.5-0.3,1.1-0.1,1.4,0.4c0.3,0.5,0.1,1.1-0.4,1.4c-15.9,8.2-47.8,37.7-55.1,90.8C823.7,532.2,823.3,532.6,822.9,532.6z"/>
			</g>
		</g>
		<g id="XMLID_111_">
			<g id="XMLID_116_">
				<g id="XMLID_117_">
					<path id="XMLID_118_" class="st2" d="M814,567.3c0.5-4.5,0.1-8.3-0.9-12.7c-1-4.4-3.7-8.6-3.9-13.2c-0.2-3.7,2.1-7.9,4.7-10.4
						c2.7-2.6,6.3-4.4,8.1-7.6c1.9-3.3,1.5-7.4,2.3-11.1c1-4.1,3.6-7.7,7.1-10c3.5-2.2,7.9-3.1,12-2.2c3.9,0.8,7.3,2.9,10.8,4.7
						c3.7,1.8,7.4,2.9,11.5,2.2c4.4-0.7,8.7-1.4,13.1-1.4c7.5,0,17,2.6,19.5,10.5c0.6,2,0.9,4.1,0.2,6.1c0,0.1-0.1,0.2-0.1,0.2
						c-2.2,5.4-9,6.5-13.4,9.1c-1.2,0.7-3.2,1.7-3.7,3.2c-0.5,1.5,0.8,3.5,1.4,4.8c1.6,3.5,3.9,6.8,4.1,10.8
						c0.3,5.6-4.4,11-9.1,13.4c-4.5,2.3-9.8,2.8-14.9,2.6c-2.5-0.1-5.3-0.3-7.3,1.1c-1.8,1.3-2.7,3.5-2.9,5.7
						c-0.3,2.2-0.1,4.4-0.3,6.6c-0.7,6.9-5.7,13.1-12.1,15.7c-5.3,2.1-11.5,1.9-16.8-0.2c-4.4-1.7-8.2-7-9-11.6
						C813.5,578.4,813.4,572.5,814,567.3z"/>
				</g>
			</g>
			<g id="XMLID_114_">
				<path id="XMLID_115_" class="st4" d="M815.8,580.2C815.7,580.2,815.7,580.2,815.8,580.2c-0.5-0.1-0.8-0.5-0.8-0.9
					c7.3-51.9,59.3-65.6,71.8-66.2c0.5,0,0.8,0.3,0.9,0.8c0,0.5-0.3,0.9-0.8,0.9c-12.2,0.6-63.2,14-70.3,64.8
					C816.6,579.9,816.2,580.2,815.8,580.2z"/>
			</g>
			<g id="XMLID_112_">
				<path id="XMLID_113_" class="st4" d="M871.5,547.5c-0.2,0-0.3-0.1-0.5-0.2c-0.1-0.1-15.3-11.8-37.3-5.8c-0.4,0.1-0.9-0.1-1-0.6
					c-0.1-0.4,0.1-0.9,0.6-1c22.8-6.3,38.6,5.9,38.7,6.1c0.4,0.3,0.4,0.8,0.1,1.2C872,547.4,871.8,547.5,871.5,547.5z"/>
			</g>
		</g>
	</g>
	<g id="Clouds_3_">
		<g>
			<g id="XMLID_00000006704002219932879820000003747462950334106511_">
				<path class="st5" d="M275.8,59.5l-6.1,3.5V46.7c-0.1-16.9-8.8-23.1-19.9-16.8l0,0c-11.1,6.3-20.8,18.9-21.7,35.9l-0.2,3.1
					c-2.4-1.8-5.5-2-9.1,0h0c-12.5,6.5-15,18.1-15.6,30.3l-0.1,1.4l-10.2,5.9c-5.3,3-9.9,11.8-10.3,19.8c-0.4,8.1,3.5,12.8,8.8,9.8
					l82.9-47.9c5.3-3,9.9-11.3,10.3-19.4C285,60.8,281.1,56.5,275.8,59.5z"/>
			</g>
			<g id="XMLID_00000054947223868713886690000015317442630347904429_">
				<path class="st5" d="M373.7,83.7L362,90.5c0.1-0.7,0.2-1.5,0.2-2.2l0.2-4.5c0.4-8-3.5-12.1-8.7-9.2c-2.1,1.2-4.1,3.4-5.8,6.1
					c-0.3-10.3-5.9-15.2-13.1-11.1c-7.8,4.4-14.7,17.7-15.3,29.7c0,0,0,4.6,0,6.6c0,2,0,5.4,0.4,8.2l-9.8,5.6
					c-2.9,1.6-5.4,6.4-5.7,10.9c-0.2,4.4,1.9,7.2,4.9,5.5l63.6-36.7c2.9-1.6,5.4-6.1,5.7-10.6C378.8,84.3,376.6,82.1,373.7,83.7z"/>
			</g>
		</g>
	</g>
	<g id="Weather">
		<path class="st6" d="M174.3,268.1v24.1v249c0,2.1,0.5,4.1,1.2,5.7c0.4,0.9,0.9,1.6,1.5,2.2c0.5,0.6,1,0.9,1.9,1.5
			c0.2,0.1,13.5,7.8,13.9,8c-0.1-0.1-0.6-0.3-1.4-1.1c-0.9-0.8-1.5-1.7-2-2.8c-0.6-1.5-1-3.3-1.1-5.5V300.3v-24.4
			c0-3.2,1.1-6.7,2.8-9.9l-13.8-8C175.4,261.3,174.3,264.8,174.3,268.1z"/>
		<path class="st6" d="M174.3,268.1v24.1v249c0,2.1,0.5,4.1,1.2,5.7c0.4,0.9,0.9,1.6,1.5,2.2c0.5,0.6,1,0.9,1.9,1.5
			c0.2,0.1,13.5,7.8,13.9,8c-0.1-0.1-0.6-0.3-1.4-1.1c-0.9-0.8-1.5-1.7-2-2.8c-0.6-1.5-1-3.3-1.1-5.5V300.3v-24.4
			c0-3.2,1.1-6.7,2.8-9.9l-13.8-8C175.4,261.3,174.3,264.8,174.3,268.1z"/>
		<path id="XMLID_13_" class="st2" d="M632.7,19.4v275.9c0,6.9-4.9,15.3-10.9,18.8L199,558.3c-1.2,0.7-2.5,1.1-3.6,1
			c-0.5,0-0.9-0.1-1.4-0.2c-0.3-0.1-0.6-0.2-0.9-0.3c-0.2-0.1-0.4-0.2-0.6-0.3c-0.2-0.1-0.4-0.3-0.6-0.4c-0.2-0.2-0.4-0.3-0.6-0.5
			c-0.9-0.8-1.5-1.7-2-2.8c-0.7-1.6-1.1-3.5-1.1-5.5V275.9c0-6.9,4.9-15.3,10.9-18.8L621.8,13.2c2.8-1.6,5.3-1.9,7.3-0.9
			c0.3,0.1,0.6,0.3,0.9,0.5c0,0,0.1,0.1,0.1,0.1c0.3,0.2,0.5,0.4,0.7,0.7c0.1,0.1,0.2,0.2,0.3,0.4c0.1,0.2,0.3,0.4,0.4,0.6
			c0.3,0.4,0.5,0.9,0.6,1.4c0.1,0.3,0.2,0.6,0.2,1c0,0.1,0.1,0.1,0,0.2c0.1,0.3,0.1,0.6,0.2,1C632.6,18.5,632.7,19,632.7,19.4z"/>
		<g id="XMLID_398_" class="st7">
			<path class="st4" d="M632.7,19.4v275.9c0,6.9-4.9,15.3-10.9,18.8L199,558.3c-1.2,0.7-2.5,1.1-3.6,1c-0.5,0-0.9-0.1-1.4-0.2
				c-0.3-0.1-0.6-0.2-0.9-0.3c-0.2-0.1-0.4-0.2-0.6-0.3c-0.2-0.1-0.4-0.3-0.6-0.4c-0.2-0.2-0.4-0.3-0.6-0.5c-0.9-0.8-1.5-1.7-2-2.8
				c-0.7-1.6-1.1-3.5-1.1-5.5V275.9c0-6.9,4.9-15.3,10.9-18.8L621.8,13.2c2.8-1.6,5.3-1.9,7.3-0.9c0.3,0.1,0.6,0.3,0.9,0.5
				c0,0,0.1,0.1,0.1,0.1c0.3,0.2,0.5,0.4,0.7,0.7c0.1,0.1,0.2,0.2,0.3,0.4c0.1,0.2,0.3,0.4,0.4,0.6c0.3,0.4,0.5,0.9,0.6,1.4
				c0.1,0.3,0.2,0.6,0.2,1c0,0.1,0.1,0.1,0,0.2c0.1,0.3,0.1,0.6,0.2,1C632.6,18.5,632.7,19,632.7,19.4z"/>
		</g>
		<path class="st2" d="M615.8,4.7c-2-1.2-4.8-1.2-7.9,0.6L185.1,249.3c-0.8,0.5-1.5,1-2.3,1.6c-0.1,0.1-0.2,0.2-0.3,0.3
			c-0.6,0.5-1.2,1.1-1.8,1.7c0,0.1-0.1,0.1-0.1,0.2c-1.3,1.5-2.5,3.1-3.4,4.9c0,0,0,0,0,0l13.8,8c1-1.8,2.1-3.5,3.4-5
			c0.1-0.1,0.1-0.1,0.2-0.2c0.6-0.6,1.2-1.2,1.8-1.7c0.1-0.1,0.2-0.2,0.4-0.3c0.7-0.6,1.5-1.1,2.3-1.6c0,0,0,0,0,0L621.8,13.2
			c2.8-1.6,5.3-1.9,7.3-0.9C626.8,11,617.8,5.9,615.8,4.7z"/>
		<g class="st8">
			<path class="st4" d="M615.8,4.7c-2-1.2-4.8-1.2-7.9,0.6L185.1,249.3c-0.8,0.5-1.5,1-2.3,1.6c-0.1,0.1-0.2,0.2-0.3,0.3
				c-0.6,0.5-1.2,1.1-1.8,1.7c0,0.1-0.1,0.1-0.1,0.2c-1.3,1.5-2.5,3.1-3.4,4.9c0,0,0,0,0,0l13.8,8c1-1.8,2.1-3.5,3.4-5
				c0.1-0.1,0.1-0.1,0.2-0.2c0.6-0.6,1.2-1.2,1.8-1.7c0.1-0.1,0.2-0.2,0.4-0.3c0.7-0.6,1.5-1.1,2.3-1.6c0,0,0,0,0,0L621.8,13.2
				c2.8-1.6,5.3-1.9,7.3-0.9C626.8,11,617.8,5.9,615.8,4.7z"/>
		</g>
		<polygon class="st9" points="177.1,258 177.1,258 177.1,258 		"/>
		<g>
			<g id="XMLID_3521_">
				<path id="XMLID_3522_" class="st10" d="M215,267.6C215,267.6,215,267.6,215,267.6C215,267.6,215,267.6,215,267.6
					c-1.3-0.8-3-0.7-4.8,0.4c-2.8,1.6-5.2,5-6.3,8.5c-0.5,1.4-0.6,2.1-0.6,3.5v1.1c0,3.7,4.1,8.6,6,10.4c0,0,0.1,0.1,0.1,0.1
					c0,0,0,0,0,0c0.5,0.3,1.1,0.1,1.3-0.4c1.7-3.4,6.5-13.6,6.5-17.5v-1.1C217.2,270.1,216.3,268.4,215,267.6z M207.5,279.3
					c0-0.1,0-0.1,0-0.2c0-0.2-0.1-0.4-0.1-0.6c0-2,1.4-4.5,3.2-5.6c0.2-0.1,0.4-0.2,0.6-0.3c0.2-0.1,0.3-0.1,0.5-0.1
					c1.3-0.2,2.1,0.6,2.1,2.3c0,2-1.4,4.5-3.2,5.6C209.1,281.2,207.9,280.7,207.5,279.3z"/>
			</g>
			<path class="st11" d="M224.2,268.7c0,1.9,1.4,2.6,3.1,1.6l28.7-16.6c1.7-1,3.1-3.3,3.1-5.1c0-1.9-1.4-2.6-3.1-1.6l-28.7,16.6
				C225.5,264.5,224.2,266.8,224.2,268.7z"/>
			<path class="st12" d="M224.2,268.7c0,1.9,1.4,2.6,3.1,1.6l28.7-16.6c1.7-1,3.1-3.3,3.1-5.1c0-1.9-1.4-2.6-3.1-1.6l-28.7,16.6
				C225.5,264.5,224.2,266.8,224.2,268.7z"/>
			<path class="st2" d="M226,276.6l21.9-12.8c1-0.6,1.9-0.2,1.9,0.9c0,1.1-0.8,2.5-1.9,3.1L226,280.7c-1,0.6-1.9,0.2-1.9-0.9
				S225,277.2,226,276.6z"/>
			<g>
				<path id="XMLID_291_" class="st13" d="M350.5,356.4l-4.4,2.4v-10.3c0-7.6-6.1-9.4-12.7-5.6l0,0c-6.6,3.8-11.9,13.1-11.9,20.7
					v1.4c-1.5-0.6-3.4-0.4-5.5,0.9h0c-4.7,2.8-8.6,9.4-8.6,14.9v0.6l-6.1,3.5c-3.1,1.8-5.7,6.2-5.7,9.8c0,3.6,2.5,5.1,5.7,3.2
					l49.2-28.6c3.1-1.8,5.7-6.2,5.7-9.8C356.2,356,353.6,354.5,350.5,356.4z"/>
				<path class="st14" d="M324.8,347.9c-3.2,4.4-5.2,9.8-5.3,14.7c-1.5-0.1-3.2,0.4-4.8,1.4c-3.1,1.8-5.8,5-7.5,8.6
					c-3.3-0.5-5.5-3.4-5.5-8.3c0-7.4,5.3-16.5,11.8-20.2C319,340.9,323.7,342.6,324.8,347.9z"/>
			</g>
			<text transform="matrix(0.6495 -0.375 0 1 209.8897 376.9163)" class="st10 st15 st16">24°C</text>
			<g>
				<path class="st2" d="M203.2,397.3c-0.3,0-0.6-0.2-0.8-0.5c-0.3-0.5-0.1-1,0.3-1.3l161-93c0.4-0.3,1-0.1,1.3,0.3
					c0.3,0.5,0.1,1-0.3,1.3l-161,93C203.5,397.3,203.4,397.3,203.2,397.3z"/>
			</g>
			<text transform="matrix(0.6495 -0.375 0 1 249.3091 396.4251)" class="st10 st15 st17">27°C</text>
			<text transform="matrix(0.6495 -0.375 0 1 249.3108 422.9867)" class="st10 st15 st17">11°C</text>
			<g>
				<text transform="matrix(0.6495 -0.375 0 1 251.8582 454.7914)" class="st10 st15 st18">75%</text>
			</g>
			<g>
				<text transform="matrix(0.6495 -0.375 0 1 308.6607 421.8891)" class="st10 st15 st18">15 km/h</text>
			</g>
			<g>
				<text transform="matrix(0.6495 -0.375 0 1 218.6328 414.136)" class="st10 st15 st17">MAX</text>
			</g>
			<g>
				<text transform="matrix(0.6495 -0.375 0 1 218.6328 440.6985)" class="st10 st15 st17">MIN</text>
			</g>
			<g>
				<g>
					<path id="XMLID_269_" class="st2" d="M241.1,453.5l-1.8,1v-4.3c0-3.1-2.5-3.9-5.2-2.3l0,0c-2.7,1.6-4.9,5.4-4.9,8.5v0.6
						c-0.6-0.2-1.4-0.1-2.3,0.4l0,0c-2,1.1-3.5,3.9-3.5,6.1v0.3l-2.5,1.5c-1.3,0.7-2.3,2.6-2.3,4c0,1.5,1,2.1,2.3,1.3l20.3-11.8
						c1.3-0.7,2.3-2.6,2.3-4C243.5,453.4,242.4,452.8,241.1,453.5z"/>
					<g>
						<g id="XMLID_344_">
							<g>
								<path id="XMLID_00000021115556506083003150000000996233722528493230_" class="st2" d="M225.6,474.6
									C225.6,474.6,225.6,474.6,225.6,474.6C225.6,474.6,225.6,474.6,225.6,474.6c0.2,0.2,0.5,0.2,0.7,0.1c0.4-0.2,0.8-0.8,1-1.5
									c0.1-0.3,0.1-0.4,0.1-0.7v-0.2c0-0.7-0.6-1.9-0.9-2.3c0,0,0,0,0,0c0,0,0,0,0,0c-0.1-0.1-0.2-0.1-0.2,0c-0.2,0.6-1,2.5-1,3.3
									v0.2C225.3,474,225.4,474.4,225.6,474.6z"/>
							</g>
						</g>
						<g id="XMLID_373_">
							<g>
								<path id="XMLID_00000124851434542665437530000002752778433970800568_" class="st2" d="M231.9,470.9
									C231.9,470.9,231.9,470.9,231.9,470.9C231.9,470.9,231.9,470.9,231.9,470.9c0.2,0.2,0.5,0.2,0.7,0.1c0.4-0.2,0.8-0.8,1-1.5
									c0.1-0.3,0.1-0.4,0.1-0.7v-0.2c0-0.7-0.6-1.9-0.9-2.3c0,0,0,0,0,0c0,0,0,0,0,0c-0.1-0.1-0.2-0.1-0.2,0c-0.2,0.6-1,2.5-1,3.3
									v0.2C231.6,470.4,231.7,470.7,231.9,470.9z"/>
							</g>
						</g>
						<g id="XMLID_488_">
							<g>
								<path id="XMLID_00000052097077057530761580000007392732697647735743_" class="st2" d="M238.2,467.3
									C238.2,467.3,238.2,467.3,238.2,467.3C238.2,467.3,238.2,467.3,238.2,467.3c0.2,0.2,0.5,0.2,0.7,0.1c0.4-0.2,0.8-0.8,1-1.5
									c0.1-0.3,0.1-0.4,0.1-0.7v-0.2c0-0.7-0.6-1.9-0.9-2.3c0,0,0,0,0,0c0,0,0,0,0,0c-0.1-0.1-0.2-0.1-0.2,0c-0.2,0.6-1,2.5-1,3.3
									v0.2C237.8,466.7,238,467.1,238.2,467.3z"/>
							</g>
						</g>
					</g>
				</g>
				<g class="st19">
					<path id="XMLID_903_" d="M241.1,453.5l-1.8,1v-4.3c0-3.1-2.5-3.9-5.2-2.3l0,0c-2.7,1.6-4.9,5.4-4.9,8.5v0.6
						c-0.6-0.2-1.4-0.1-2.3,0.4l0,0c-2,1.1-3.5,3.9-3.5,6.1v0.3l-2.5,1.5c-1.3,0.7-2.3,2.6-2.3,4c0,1.5,1,2.1,2.3,1.3l20.3-11.8
						c1.3-0.7,2.3-2.6,2.3-4C243.5,453.4,242.4,452.8,241.1,453.5z"/>
					<g>
						<g id="XMLID_712_">
							<g>
								<path id="XMLID_00000118373232207713146200000000812419629542855567_" d="M225.6,474.6C225.6,474.6,225.6,474.6,225.6,474.6
									C225.6,474.6,225.6,474.6,225.6,474.6c0.2,0.2,0.5,0.2,0.7,0.1c0.4-0.2,0.8-0.8,1-1.5c0.1-0.3,0.1-0.4,0.1-0.7v-0.2
									c0-0.7-0.6-1.9-0.9-2.3c0,0,0,0,0,0c0,0,0,0,0,0c-0.1-0.1-0.2-0.1-0.2,0c-0.2,0.6-1,2.5-1,3.3v0.2
									C225.3,474,225.4,474.4,225.6,474.6z"/>
							</g>
						</g>
						<g id="XMLID_592_">
							<g>
								<path id="XMLID_00000000210044275002336610000006918250975030622112_" d="M231.9,470.9C231.9,470.9,231.9,470.9,231.9,470.9
									C231.9,470.9,231.9,470.9,231.9,470.9c0.2,0.2,0.5,0.2,0.7,0.1c0.4-0.2,0.8-0.8,1-1.5c0.1-0.3,0.1-0.4,0.1-0.7v-0.2
									c0-0.7-0.6-1.9-0.9-2.3c0,0,0,0,0,0c0,0,0,0,0,0c-0.1-0.1-0.2-0.1-0.2,0c-0.2,0.6-1,2.5-1,3.3v0.2
									C231.6,470.4,231.7,470.7,231.9,470.9z"/>
							</g>
						</g>
						<g id="XMLID_434_">
							<g>
								<path id="XMLID_00000079482054750460157970000005821486533942653623_" d="M238.2,467.3C238.2,467.3,238.2,467.3,238.2,467.3
									C238.2,467.3,238.2,467.3,238.2,467.3c0.2,0.2,0.5,0.2,0.7,0.1c0.4-0.2,0.8-0.8,1-1.5c0.1-0.3,0.1-0.4,0.1-0.7v-0.2
									c0-0.7-0.6-1.9-0.9-2.3c0,0,0,0,0,0c0,0,0,0,0,0c-0.1-0.1-0.2-0.1-0.2,0c-0.2,0.6-1,2.5-1,3.3v0.2
									C237.8,466.7,238,467.1,238.2,467.3z"/>
							</g>
						</g>
					</g>
				</g>
			</g>
			<g>
				<g>
					<g>
						<path class="st2" d="M290.4,433.2c-0.7,0-1.4-0.2-2-0.5c-1.4-0.8-2.2-2.5-2.2-4.7c0-4.3,3-9.5,6.7-11.6
							c1.9-1.1,3.8-1.3,5.2-0.4c1.4,0.8,2.2,2.5,2.2,4.7c0,4.3-3,9.5-6.7,11.6C292.5,432.9,291.4,433.2,290.4,433.2z M296.1,416.7
							c-0.8,0-1.6,0.3-2.5,0.8l0,0c-3.3,1.9-6.1,6.6-6.1,10.5c0,1.7,0.5,3,1.5,3.6c1,0.6,2.4,0.4,3.9-0.4c3.3-1.9,6.1-6.6,6.1-10.5
							c0-1.7-0.5-3-1.5-3.6C297.1,416.8,296.6,416.7,296.1,416.7z M293.3,416.9L293.3,416.9L293.3,416.9z"/>
					</g>
					<g>
						<path class="st2" d="M288.9,426.5l6.6-7.5c0.3-0.4,0.9,0,0.8,0.4l-2.8,10.5l-0.9-4.2L288.9,426.5z"/>
					</g>
					<g>
						<path class="st2" d="M293.3,415c-0.4,0-0.7-0.3-0.7-0.7v-2.5c0-0.4,0.3-0.7,0.7-0.7s0.7,0.3,0.7,0.7v2.5
							C294,414.7,293.7,415,293.3,415z"/>
					</g>
					<g>
						<path class="st2" d="M293.3,437.3c-0.4,0-0.7-0.3-0.7-0.7v-2.5c0-0.4,0.3-0.7,0.7-0.7s0.7,0.3,0.7,0.7v2.5
							C294,437,293.7,437.3,293.3,437.3z"/>
					</g>
					<g>
						<path class="st2" d="M301.9,420c-0.2,0-0.4-0.1-0.6-0.3c-0.2-0.3-0.1-0.7,0.2-0.9l2.1-1.2c0.3-0.2,0.7-0.1,0.9,0.2
							c0.2,0.3,0.1,0.7-0.2,0.9l-2.1,1.2C302.1,420,302,420,301.9,420z"/>
					</g>
					<g>
						<path class="st2" d="M282.6,431.1c-0.2,0-0.4-0.1-0.6-0.3c-0.2-0.3-0.1-0.7,0.2-0.9l2.1-1.2c0.3-0.2,0.7-0.1,0.9,0.2
							c0.2,0.3,0.1,0.7-0.2,0.9l-2.1,1.2C282.8,431.1,282.7,431.1,282.6,431.1z"/>
					</g>
				</g>
				<g class="st19">
					<g>
						<g>
							<path d="M290.4,433.2c-0.7,0-1.4-0.2-2-0.5c-1.4-0.8-2.2-2.5-2.2-4.7c0-4.3,3-9.5,6.7-11.6c1.9-1.1,3.8-1.3,5.2-0.4
								c1.4,0.8,2.2,2.5,2.2,4.7c0,4.3-3,9.5-6.7,11.6C292.5,432.9,291.4,433.2,290.4,433.2z M296.1,416.7c-0.8,0-1.6,0.3-2.5,0.8
								l0,0c-3.3,1.9-6.1,6.6-6.1,10.5c0,1.7,0.5,3,1.5,3.6c1,0.6,2.4,0.4,3.9-0.4c3.3-1.9,6.1-6.6,6.1-10.5c0-1.7-0.5-3-1.5-3.6
								C297.1,416.8,296.6,416.7,296.1,416.7z M293.3,416.9L293.3,416.9L293.3,416.9z"/>
						</g>
						<g>
							<path d="M288.9,426.5l6.6-7.5c0.3-0.4,0.9,0,0.8,0.4l-2.8,10.5l-0.9-4.2L288.9,426.5z"/>
						</g>
						<g>
							<path d="M293.3,415c-0.4,0-0.7-0.3-0.7-0.7v-2.5c0-0.4,0.3-0.7,0.7-0.7s0.7,0.3,0.7,0.7v2.5C294,414.7,293.7,415,293.3,415z"
								/>
						</g>
						<g>
							<path d="M293.3,437.3c-0.4,0-0.7-0.3-0.7-0.7v-2.5c0-0.4,0.3-0.7,0.7-0.7s0.7,0.3,0.7,0.7v2.5
								C294,437,293.7,437.3,293.3,437.3z"/>
						</g>
						<g>
							<path d="M301.9,420c-0.2,0-0.4-0.1-0.6-0.3c-0.2-0.3-0.1-0.7,0.2-0.9l2.1-1.2c0.3-0.2,0.7-0.1,0.9,0.2
								c0.2,0.3,0.1,0.7-0.2,0.9l-2.1,1.2C302.1,420,302,420,301.9,420z"/>
						</g>
						<g>
							<path d="M282.6,431.1c-0.2,0-0.4-0.1-0.6-0.3c-0.2-0.3-0.1-0.7,0.2-0.9l2.1-1.2c0.3-0.2,0.7-0.1,0.9,0.2
								c0.2,0.3,0.1,0.7-0.2,0.9l-2.1,1.2C282.8,431.1,282.7,431.1,282.6,431.1z"/>
						</g>
					</g>
				</g>
			</g>
			<g>
				<text transform="matrix(0.4871 -0.2812 0 1 210.9688 524.8225)" class="st10 st15 st20 st21">FRIDAY</text>
			</g>
		</g>
		<g>
			<path class="st11" d="M387.8,431.6l52.7-30.4c4.5-2.6,8.2-8.9,8.2-14.2l0-246.8c0-5.2-3.7-7.3-8.2-4.7l-52.7,30.4
				c-4.5,2.6-8.2,8.9-8.2,14.2l0,246.8C379.6,432,383.3,434.2,387.8,431.6z"/>
			<text transform="matrix(0.6495 -0.375 0 1 415.637 344.6677)" class="st10 st15 st17">27°C</text>
			<text transform="matrix(0.6495 -0.375 0 1 415.6386 371.2312)" class="st10 st15 st17">11°C</text>
			<g>
				<text transform="matrix(0.6495 -0.375 0 1 389.7357 359.6257)" class="st10 st15 st17">MAX</text>
			</g>
			<g>
				<text transform="matrix(0.6495 -0.375 0 1 389.7357 386.1921)" class="st10 st15 st17">MIN</text>
			</g>
			<g>
				<g>
					<g id="XMLID_00000166648411273169581510000017623458285662551734_">
						<path class="st13" d="M435.9,256.8l-3.9,2.1v-9.2c0-6.8-5.4-8.4-11.2-5l0,0c-5.9,3.4-10.6,11.6-10.6,18.4v1.2
							c-1.3-0.5-3-0.3-4.9,0.8h0c-4.2,2.4-7.6,8.4-7.6,13.2v0.6l-5.4,3.1c-2.8,1.6-5,5.5-5,8.7s2.2,4.5,5,2.9l43.6-25.4
							c2.8-1.6,5-5.5,5-8.7C440.9,256.5,438.7,255.2,435.9,256.8z"/>
					</g>
					<g>
						<g id="XMLID_00000163763720615248690360000011622046153810616967_">
							<g>
								<path id="XMLID_00000082328341784838561140000016743090173783499150_" class="st13" d="M402.4,302.1
									C402.4,302.1,402.4,302.1,402.4,302.1C402.4,302.1,402.5,302.1,402.4,302.1c0.4,0.4,1,0.5,1.6,0.1c0.9-0.5,1.7-1.8,2.1-3.3
									c0.1-0.6,0.2-0.9,0.2-1.5V297c0-1.6-1.3-4-2-4.9c0,0,0,0,0-0.1c0,0,0,0,0,0c-0.2-0.2-0.4-0.1-0.4,0.1
									c-0.5,1.4-2.1,5.5-2.1,7.2v0.5C401.7,300.9,402,301.7,402.4,302.1z"/>
							</g>
						</g>
						<g id="XMLID_00000127763050186475014470000015185404955229178273_">
							<g>
								<path id="XMLID_00000154412159762232614710000016701102235897834895_" class="st13" d="M416,294.3
									C416,294.3,416,294.3,416,294.3C416,294.3,416,294.3,416,294.3c0.4,0.4,1,0.5,1.6,0.1c0.9-0.5,1.7-1.8,2.1-3.3
									c0.1-0.6,0.2-0.9,0.2-1.5v-0.5c0-1.6-1.3-4-2-4.9c0,0,0,0,0-0.1c0,0,0,0,0,0c-0.2-0.2-0.4-0.1-0.4,0.1
									c-0.5,1.4-2.1,5.5-2.1,7.2v0.5C415.3,293.1,415.5,293.9,416,294.3z"/>
							</g>
						</g>
						<g id="XMLID_00000143595897422410723070000000887998482400023955_">
							<g>
								<path id="XMLID_00000090265255841582279440000003676285565793486720_" class="st13" d="M429.5,286.5
									C429.5,286.5,429.5,286.5,429.5,286.5C429.5,286.5,429.5,286.5,429.5,286.5c0.4,0.4,1,0.5,1.6,0.1c0.9-0.5,1.7-1.8,2.1-3.3
									c0.1-0.6,0.2-0.9,0.2-1.5v-0.5c0-1.6-1.3-4-2-4.9c0,0,0,0,0-0.1c0,0,0,0,0,0c-0.2-0.2-0.4-0.1-0.4,0.1
									c-0.5,1.4-2.1,5.5-2.1,7.2v0.5C428.8,285.2,429.1,286,429.5,286.5z"/>
							</g>
						</g>
					</g>
				</g>
			</g>
			<g>
				<text transform="matrix(0.4871 -0.2812 0 1 392.0276 234.3005)" class="st10 st15 st22 st21">SAT</text>
			</g>
		</g>
		<g>
			<path class="st11" d="M472.1,382.8l52.7-30.4c4.5-2.6,8.2-8.9,8.2-14.2l0-246.8c0-5.2-3.7-7.3-8.2-4.7l-52.7,30.4
				c-4.5,2.6-8.2,8.9-8.2,14.2l0,246.8C464,383.3,467.6,385.4,472.1,382.8z"/>
			<text transform="matrix(0.6495 -0.375 0 1 499.9951 295.9501)" class="st10 st15 st17">27°C</text>
			<text transform="matrix(0.6495 -0.375 0 1 499.9967 322.5156)" class="st10 st15 st17">11°C</text>
			<g>
				<text transform="matrix(0.6495 -0.375 0 1 474.0954 310.9071)" class="st10 st15 st17">MAX</text>
			</g>
			<g>
				<text transform="matrix(0.6495 -0.375 0 1 474.0954 337.4735)" class="st10 st15 st17">MIN</text>
			</g>
			<g>
				<g>
					<g id="XMLID_00000178162540879727907820000001944226272384558466_">
						<path class="st13" d="M520.3,216.9l-3.9,2.1v-9.2c0-6.8-5.4-8.4-11.2-5l0,0c-5.9,3.4-10.6,11.6-10.6,18.4v1.2
							c-1.3-0.5-3-0.3-4.9,0.8h0c-4.2,2.4-7.6,8.4-7.6,13.2v0.6l-5.4,3.1c-2.8,1.6-5,5.5-5,8.7c0,3.2,2.2,4.5,5,2.9l43.6-25.4
							c2.8-1.6,5-5.5,5-8.7C525.3,216.6,523.1,215.3,520.3,216.9z"/>
					</g>
				</g>
			</g>
			<g>
				<text transform="matrix(0.4871 -0.2812 0 1 474.0633 186.8827)" class="st10 st15 st22 st21">SUN</text>
			</g>
			<path class="st14" d="M497.9,209.4c-2.9,4-4.7,8.8-4.8,13.3c-1.3-0.1-2.9,0.4-4.3,1.2c-2.8,1.6-5.2,4.5-6.8,7.8
				c-3-0.4-5-3.1-5-7.5c0-6.7,4.8-14.9,10.6-18.3C492.6,203.1,496.8,204.7,497.9,209.4z"/>
		</g>
		<g>
			<path class="st11" d="M556.5,334.1l52.7-30.4c4.5-2.6,8.2-8.9,8.2-14.2l0-246.8c0-5.2-3.7-7.3-8.2-4.7l-52.7,30.4
				c-4.5,2.6-8.2,8.9-8.2,14.2l0,246.8C548.3,334.6,552,336.8,556.5,334.1z"/>
			<text transform="matrix(0.6495 -0.375 0 1 584.3531 247.2365)" class="st10 st15 st17">27°C</text>
			<text transform="matrix(0.6495 -0.375 0 1 584.3548 273.798)" class="st10 st15 st17">11°C</text>
			<g>
				<text transform="matrix(0.6495 -0.375 0 1 558.4518 262.1944)" class="st10 st15 st17">MAX</text>
			</g>
			<g>
				<text transform="matrix(0.6495 -0.375 0 1 558.4518 288.7589)" class="st10 st15 st17">MIN</text>
			</g>
			<g>
				<text transform="matrix(0.4871 -0.2812 0 1 556.8551 139.2667)" class="st10 st15 st22 st21">MON</text>
			</g>
			<path class="st14" d="M582.8,157.3c8.5-4.9,15.3-0.9,15.3,8.9c0,9.8-6.9,21.7-15.3,26.6c-8.5,4.9-15.3,0.9-15.3-8.9
				C567.5,174.1,574.4,162.2,582.8,157.3z"/>
		</g>
	</g>
	<g id="Character_8_">
		<g id="XMLID_1260_">
			<path id="XMLID_1273_" class="st2" d="M670.4,77.2c15.2,2.9,29.8,15.8,37.8,29.4c31.1-1.6,70.1,9,106.4,27.4L842,27.7
				C782.6,16.5,724.9,26.3,670.4,77.2z"/>
			<path id="XMLID_1272_" class="st23" d="M708.2,106.6c31.1-1.6,70.1,9,106.4,27.4L842,27.7C801,25.6,743,55.3,708.2,106.6z"/>
			<path id="XMLID_1265_" class="st24" d="M670.4,77.2C724.9,26.3,782.6,16.5,842,27.7c-41-2.1-99,27.6-133.8,78.9
				C700.2,93,685.6,80.1,670.4,77.2z"/>
			<path id="XMLID_1264_" class="st2" d="M968.4,153.9c-14.7-4.8-33.7-0.6-47.3,7.5c-26.5-16.4-65.7-25.9-106.4-27.4L842,27.7
				C899.4,46.6,945.3,83,968.4,153.9z"/>
			<path id="XMLID_1262_" class="st25" d="M921.1,161.4c-26.5-16.4-65.7-25.9-106.4-27.4L842,27.7
				C878.9,45.7,915.4,99.6,921.1,161.4z"/>
			<path id="XMLID_1261_" class="st26" d="M968.4,153.9C945.3,83,899.4,46.6,842,27.7c36.9,18,73.4,72,79.1,133.7
				C934.7,153.3,953.7,149.1,968.4,153.9z"/>
		</g>
		<g id="XMLID_1092_">
			<path id="XMLID_1093_" class="st10" d="M836.1,50.8c0,0,0.3,0,0.8,0.1c0.2,0,0.6,0,0.9,0.1c0.2,0,0.6,0,0.8,0
				c1.2,0,0.9-0.6,1.1-1.2c0.3-1.2,0.7-2.9,1.2-5c1-4.2,2.2-9.7,3.3-15.3c0.5-2.8,1-5.6,1.4-8.3c0.2-1.3,0.4-2.6,0.6-3.8
				c0.2-1.2,0.3-2.4,0.5-3.4c0.2-1.1,0.2-2.1,0.3-2.9c0.1-0.9,0.2-1.6,0.2-2.3c0.1-1.3,0.2-2,0.2-2s-0.3,0.7-0.8,1.8
				c-0.3,0.6-0.6,1.3-0.9,2.1c-0.3,0.8-0.7,1.7-1.1,2.7c-0.4,1-0.8,2.1-1.3,3.2c-0.5,1.1-0.9,2.4-1.3,3.6c-0.9,2.5-1.9,5.2-2.7,7.9
				c-1.8,5.4-3.4,10.9-4.5,15c-0.6,2.1-1,3.8-1.3,5c-0.1,0.6-0.6,1,0.4,1.6c0.2,0.1,0.5,0.3,0.7,0.4c0.3,0.2,0.6,0.3,0.8,0.4
				C835.8,50.7,836.1,50.8,836.1,50.8z"/>
		</g>
		<g id="Character_3_">
			<g>
				<path id="XMLID_1407_" class="st27" d="M741.5,184.9c-12.1,4-15.1,4.9-23.5,18c-8.1,12.5-16.4,35.7-23.6,54.3
					c-13.3-3.8-36.2-16.1-45.3-22c-7-4.6-8.4-8.1-12.2-12.7c-3.8-4.6-10.9-14.6-12.6-8.4c-1.1,4.2,3.3,6.5,3,11
					c-0.2,2.4-14.8-6.7-20.5-10.7c-3.8-2.7-12.7,5.7-9.1,14.8c3.1,8,8.2,13.1,17.2,16.9c9.5,4,14.5,6,26.5,11.4
					c12.5,5.6,58.3,34.6,63.3,31.5c11.6-5.7,22.2-41.6,29.2-57.1C741,216.4,736.4,200.4,741.5,184.9z"/>
				<path id="XMLID_1406_" class="st1" d="M744.4,183.4c-5.2,6.8-3.1,4.1-4.7,14.6c-1.3,8.5-19.2,90.4-35.4,93.8
					c-7.1,1.5-52.6-28.2-65.1-35c4.2-6.2,8.4-13.8,9.8-21.6c7.5,4.1,34.8,17.8,44.1,20.7c4.3-11.9,9.5-24.1,14.4-36.1
					C717,196.9,722.2,180.6,744.4,183.4z"/>
			</g>
			<g id="XMLID_1399_">
				
					<rect id="XMLID_1405_" x="795.8" y="554.3" transform="matrix(1 -7.086332e-03 7.086332e-03 1 -4.0405 5.725)" class="st27" width="20.1" height="37.6"/>
				<polygon id="XMLID_1404_" class="st27" points="741.1,567.7 719.2,568.6 718.9,530.6 743.7,529.6 				"/>
				<path id="XMLID_1403_" class="st28" d="M811.7,319.9c0.1,18.3,2.1,124.8,2.1,124.8c0.5,5.3,5.6,14.6,6.2,33.6
					c0.8,27.5-4,92.4-4,92.4s-8.1,5.3-20.2,0.4c0,0-15.8-91.4-19.5-118.7c-3.2-23.8-12.2-85.9-12.2-85.9l-12.4,80.9
					c0,0,2.3,12.9,1.3,29.2c-0.8,12.6-10.8,75.3-10.8,75.3s-10,4.7-23.2,0.4c0,0-4.2-97.5-4.5-109.1c-0.3-13.2,4.6-126.6,4.6-126.6
					L811.7,319.9z"/>
				<path id="XMLID_1402_" class="st28" d="M795.9,582c0,0,0-2.9,0-2.9c-1.1,0-1.7,1.1-2.1,3.7c-0.3,1.9-0.5,3.3-1.1,5.7
					c-0.9,3.7-1.7,6-3.4,10.3c-2.8,7-5.2,9.7-11.6,17.9c-1.5,2-5,5.1-6.2,7.2c-1.2,2.2-1.6,8.2,0.5,9.6c7.6,5,19.2,5.1,27.3,2.6
					c6.3-1.9,10.8-6.9,11.8-13.4c0.3-1.9,0.2-3.8,0.4-5.6c0.5-4.3,2.6-8.2,5-11.7c1.4-2.1,2.9-4.1,3.8-6.4c1.7-4.1,0.3-8.8-0.8-12.9
					c-1-3.5-2-7.5-3.2-7.1c0,0.4,0,2.2,0,2.2c-1.4,1.6-5.5,3.3-10,3.5C803,584.7,795.8,584.2,795.9,582z"/>
				<path id="XMLID_1401_" class="st28" d="M719.1,561.4c-1.1,0-2.3,2.2-4.8,4.9c-3,3.3-8,6.9-12.9,9.4
					c-8.2,4.2-24.1,10.6-31.4,13.9c-4.5,2.1-4.3,7.5,0.4,10.6c4.7,3.1,16,5.2,29.5,2.1c7.4-1.7,16.9-8.6,23-8.3
					c6.1,0.3,17.5,0.2,21.9-3c4.5-3.1,2.6-9.7,1.3-15.4c-1.4-6.2-2.6-16.6-4.7-16.1l-0.4,3.1c-2.6,4-20.6,5-22.2,1.2L719.1,561.4z"
					/>
				<path id="XMLID_1400_" d="M764.1,366.5c0,0-17.1-5.5-28.6-16.4c0,0,5.2,9.6,20.6,18.5l-3.2,70.8L764.1,366.5z"/>
			</g>
			<g id="XMLID_1394_">
				<path id="XMLID_1398_" class="st0" d="M778.7,183.1c4,1,16.2,2,23.3,4c5.3,1.5,5.1,8.1,6.2,13c3.5,15.5,4.1,48,4.1,48l0.2,84.6
					c-13.1,9.5-66.9,14.4-94.5-5.7c0,0,3.4-99.1,3.4-113.1c0-14,7.8-30.9,29.3-32.1L778.7,183.1z"/>
			</g>
			<g id="XMLID_347_">
				<g id="XMLID_1386_">
					<path id="XMLID_1393_" class="st28" d="M774.1,122.8c0,13.9-11.3,25.2-25.2,25.2c-13.9,0-25.3-11.3-25.3-25.2
						c0-13.9,11.3-25.3,25.3-25.3C762.8,97.5,774.1,108.8,774.1,122.8z"/>
					<path id="XMLID_1392_" class="st28" d="M792.5,140.7c0,0-4.1,19.2-5.7,22.4c-1.6,3.2-5,4.1-5,4.1l0.3-13.5L792.5,140.7z"/>
					<path id="XMLID_1391_" class="st28" d="M787.6,110.4c0,0,4.1-0.3,7.5,3.3c3.4,3.4,1.6,16.5-2.6,27.1l-7.7,0.9L787.6,110.4z"/>
					<path id="XMLID_1390_" class="st27" d="M782.4,141.6c1.5,0.9,3.8-2,5.7-4c1.9-2,8.1-4.7,11.2,1.8c3.2,6.7-2.7,15.5-7.6,17
						c-8.4,2.6-9.7-2.8-9.7-2.8l-0.6,31.4l0,0c-5.8,7.5-18.9,16.3-26,15c-5.6-1-6.9-10.5-1.5-16.8l0-9.3c0,0-7.6,1.2-11.4,0.6
						c-6.2-1-10.1-5.9-12-12.6c-3-10.8-4.2-19.5-1.6-40.7c2.8-23.3,29.9-23.5,44.5-14.3C788,116.2,782.4,141.6,782.4,141.6z"/>
					<path id="XMLID_1389_" class="st28" d="M726.7,110.9c2.1,1.6,4.6,2.9,7.1,3.9c8.1,3,17.2,3.7,25.6,1.7c0.5-0.1,8-2.1,7.8-2.7
						c0.5,2.1,1,4.5,2.9,6.4c3.5,3.6,5.5,3.7,6.9,4.5c0.5,4.2,0.5,9.6,0.8,13.8c0.1,1.4,0.1,8.8,3.5,6.7c1.1-0.7,2.1-2.4,2.9-3.3
						c1.3-1.5,2.5-3,3.9-4.3c1-0.9,0.9-3,1-4.2c0.1-2.5-0.1-5.1-0.3-7.6c-0.2-2.6-0.6-5.2-0.9-7.8c-0.1-1.5,0.6-2.8,1-4.3
						c0.4-1.6,0.7-3.3,0.7-4.9c-0.3-5.2-4.3-9.6-9-11.9c-6.6-3.2-14.5-3.7-21.6-3.1c-5.8,0.5-11.4,0.5-17.2,0.4
						c-1.5,0-17.6-0.8-17.6-1c-0.4,3.5,0.4,7.2,2.3,10.2c-1.7,0.1-3.4,0.2-5.1,0.2c-0.7,0,1.3,3.5,1.4,3.6c0.9,1.2,2,2.3,3.2,3.2
						C726.3,110.6,726.5,110.8,726.7,110.9z"/>
					<path id="XMLID_1388_" class="st28" d="M789.1,113.1l9.3-5c-1.3-2.7-4.5-3.7-7.1-2.3C788.8,107.1,787.8,110.4,789.1,113.1z"/>
					<path id="XMLID_1387_" class="st29" d="M753.9,174c0,0,13.9-2.8,18.7-5.4c3.2-1.7,5.9-4.7,6.7-6.6c0,0-0.9,4.1-3.8,7.8
						c-3.5,4.5-21.6,7.9-21.6,7.9L753.9,174z"/>
				</g>
				<g id="XMLID_923_">
					<path id="XMLID_1384_" class="st28" d="M755.3,136.7c0,1.7,1.3,3.1,3,3.1c1.6,0,3-1.4,3-3.1c0-1.7-1.3-3.1-3-3.1
						C756.6,133.6,755.3,135,755.3,136.7z"/>
					<path id="XMLID_1383_" class="st28" d="M758.3,126.6l6.2,3.4c0.9-1.8,0.3-4-1.4-4.9C761.3,124.2,759.2,124.9,758.3,126.6z"/>
					<path id="XMLID_1382_" class="st29" d="M755.1,156.9l-6.9,2.6c0.7,2,2.8,3,4.7,2.3C754.8,161.1,755.7,158.9,755.1,156.9z"/>
					<path id="XMLID_1369_" class="st28" d="M730.8,129.1l5.6-4.3c-1.1-1.6-3.3-1.9-4.9-0.7C730,125.2,729.6,127.5,730.8,129.1z"/>
					<path id="XMLID_1014_" class="st28" d="M732,136.1c0,1.6,1.3,3,2.9,3c1.6,0,2.9-1.3,2.9-3s-1.3-3-2.9-3
						C733.3,133.1,732,134.5,732,136.1z"/>
					<polygon id="XMLID_924_" class="st29" points="747.4,133.8 746.4,151.9 737,148.7 					"/>
				</g>
				<g id="XMLID_595_">
					<path id="XMLID_922_" class="st2" d="M744,198c1.8,4.2,5,5.9,10.9,6.6c5.9,0.7,13.1-2.3,16.3-5.7l-7.3-7.3l-9.3,7l-0.8-7.8
						L744,198z"/>
					<path id="XMLID_921_" class="st12" d="M744,198c1.8,4.2,5,5.9,10.9,6.6c5.9,0.7,13.1-2.3,16.3-5.7l-7.3-7.3l-9.3,7l-0.8-7.8
						L744,198z"/>
					<g id="XMLID_912_">
						<path id="XMLID_920_" class="st2" d="M748.6,195.8c0,0-1.5,4-1,7.9c0.5,4.1,2.6,6.5,2.6,6.5s2.3,1.9,6.3,0.7
							c3.1-2.9,6.3-7.5,6-13.1l-8.1,0.9L748.6,195.8z"/>
						<path id="XMLID_918_" class="st2" d="M750.3,210.2c0,0-12,66.3-12.5,71.6c-0.5,5.3,6.9,24.3,11.5,24.5
							c4.6,0.2,13.6-17,13.7-21.9c0.1-4.9-5.8-74.1-5.8-74.1L750.3,210.2z"/>
						<path id="XMLID_917_" class="st12" d="M757.2,210.3c0,0-3,2.7-6.9-0.2l-0.2,1c0,0,2.3,2.3,7.2,0.9L757.2,210.3z"/>
					</g>
					<g id="XMLID_891_">
						<g id="XMLID_904_">
							<path id="XMLID_906_" class="st1" d="M754.6,198.6l26.9-20.5l0.1-5.4c0,0,6.3,1.7,7.7,12.7c-3.8,8.9-10.8,16.5-21,22.3
								l-5.6-10.1L754.6,198.6z"/>
							<path id="XMLID_905_" class="st1" d="M753.9,175.3c0,0-6.3,2.9-9,7.4c-2.7,4.4-2.7,18.9-2.7,18.9l6.4-5.8l6,2.9
								c-0.6-5.7-0.7-15.4-0.7-15.4L753.9,175.3z"/>
						</g>
					</g>
				</g>
			</g>
		</g>
		<g id="XMLID_992_">
			<path class="st27" d="M865.2,272.8c-11.2-19.1-28.9-53.7-37.9-65.6c-12.5-16.7-11.8-16.3-23.5-20c-1.9,5.6-6.3,28.8,2.1,45.5
				l29,41.3c-11.8,2.8-32.9,8.3-40,6.9l-2.3,21.2c42.1-3.6,61.5-4.2,73.6-11.9C871.4,286.8,868.7,278.8,865.2,272.8z"/>
			<path id="XMLID_1026_" class="st1" d="M807.5,235.6c-6.4-7.6-11-31.5-5.5-48.5c11,0.9,13.7,3.2,21.6,13
				c11.6,14.3,24.4,40,29.6,48.5c5.2,8.6,17.7,30.7,17.2,35.4c-0.5,4.8-4.5,9.4-14.7,12.2c-10.3,2.8-55.3,5.8-55.3,5.8
				s-2.2-9.2-2-21.3c13.5-2.6,25.9-5.2,33.8-7.5C832.3,273.4,813.2,242.3,807.5,235.6z"/>
			<path id="XMLID_1025_" class="st27" d="M796.8,281.2c-2.8-0.3-4.4-1.4-5.6-2.2c-1.9-1.3-3.6-2.7-5.6-3.9
				c-4.7-2.8-10.1-4.7-15.2-6.7c-0.5-0.2-1-0.4-1.6-0.3c-0.6,0.1-1.1,0.6-1.3,1.2c-0.3,0.6-0.3,1.2-0.4,1.8c-0.1,1.3,0.2,2.6,0,3.9
				C765.6,287.8,793.9,287.5,796.8,281.2z"/>
			<g>
				<path class="st2" d="M775.7,309.2L775.7,309.2l8.6-34.3l-10.4-2.6l-8.6,34.3c-0.3,0.8,0,1.8,0.9,2.7c1.7,1.7,5,2.5,7.3,1.8
					C774.9,310.8,775.6,310.1,775.7,309.2z"/>
				<path class="st24" d="M775.7,309.2L775.7,309.2l8.6-34.3l-10.4-2.6l-8.6,34.3c-0.3,0.8,0,1.8,0.9,2.7c1.7,1.7,5,2.5,7.3,1.8
					C774.9,310.8,775.6,310.1,775.7,309.2z"/>
				<path class="st2" d="M776,270.6c2.3-0.7,5.6,0.2,7.3,1.8c1.7,1.7,1.3,3.6-1.1,4.2c-2.3,0.7-5.6-0.2-7.3-1.8
					C773.2,273.1,773.7,271.3,776,270.6z"/>
				<path class="st19" d="M776,270.6c2.3-0.7,5.6,0.2,7.3,1.8c1.7,1.7,1.3,3.6-1.1,4.2c-2.3,0.7-5.6-0.2-7.3-1.8
					C773.2,273.1,773.7,271.3,776,270.6z"/>
			</g>
			<g id="XMLID_1003_">
				<g id="XMLID_1010_">
					<path id="XMLID_315_" class="st28" d="M776.5,272.8l59.4-231.7c0.4-1.6,2-2.6,3.6-2.1c1.6,0.4,2.6,2,2.1,3.6l-59.4,231.7
						C780.8,275.5,776.9,274.4,776.5,272.8z"/>
				</g>
			</g>
			<path id="XMLID_999_" class="st27" d="M796.8,281.3c-2.8,1.2-8.4,0-14-0.4c-4.6,3.2-10.3-0.5-10.4-2.6l-1.2-4.4
				c0,0-4.7-0.2-6.9,1.8c-2.2,2-0.9,5-1.8,6.2c-0.9,1.2-1.9,3.4-2.3,4.9c-0.4,1.5-2.3,4.6-2.2,6.1c0.1,1.5,0,5,0,5s2.8,6.5,11.2,7.1
				c8.4,0.6,23.3-2.9,23.3-2.9L796.8,281.3z"/>
		</g>
		<g id="XMLID_418_">
			<path id="XMLID_890_" class="st2" d="M826.8,86.6c32.8,2.5,62.3,14,88.7,34.3c26.8,4.7,43.3,16.4,52.9,32.9
				C947.8,81.8,897.2,41.9,842,27.7C786.9,13.5,723.3,24,670.4,77.2c16.3-9.9,36.5-12.2,62.2-3.3C765.5,68.8,796.9,73,826.8,86.6z"
				/>
			<path id="XMLID_763_" class="st3" d="M732.6,73.9c32.9-5.1,64.3-0.9,94.2,12.7L842,27.7C779,11.5,732.6,73.9,732.6,73.9z"/>
			<path id="XMLID_761_" class="st19" d="M670.4,77.2C723.3,24,786.9,13.5,842,27.7c-63-16.2-109.4,46.2-109.4,46.2
				C706.9,65,686.7,67.3,670.4,77.2z"/>
			<path id="XMLID_437_" class="st12" d="M915.5,121c-26.4-20.4-55.9-31.8-88.7-34.3L842,27.7C905,43.9,915.5,121,915.5,121z"/>
			<path id="XMLID_420_" class="st24" d="M968.4,153.9C947.8,81.8,897.2,41.9,842,27.7c63,16.2,73.5,93.3,73.5,93.3
				C942.3,125.6,958.9,137.4,968.4,153.9z"/>
		</g>
	</g>
</g>
</svg>
