<?xml version="1.0" standalone="no"?>
<!DOCTYPE svg PUBLIC "-//W3C//DTD SVG 20010904//EN"
 "http://www.w3.org/TR/2001/REC-SVG-20010904/DTD/svg10.dtd">
<svg version="1.0" xmlns="http://www.w3.org/2000/svg"
 width="500.000000pt" height="500.000000pt" viewBox="0 0 500.000000 500.000000"
 preserveAspectRatio="xMidYMid meet">
<metadata>
Created by potrace 1.14, written by Peter Selinger 2001-2017
</metadata>
<g transform="translate(0.000000,500.000000) scale(0.100000,-0.100000)"
fill="#000000" stroke="none">
<path d="M2143 3593 c-14 -5 -18 -117 -7 -147 7 -20 38 -21 53 -2 13 16 13
126 -1 144 -11 12 -24 14 -45 5z"/>
<path d="M1937 3550 c-13 -19 -13 -27 5 -73 11 -29 24 -58 30 -64 17 -21 47
-15 53 10 7 29 -27 118 -53 135 -18 12 -22 11 -35 -8z"/>
<path d="M2346 3555 c-20 -21 -51 -119 -43 -139 8 -19 40 -21 54 -3 12 14 43
105 43 123 0 23 -37 36 -54 19z"/>
<path d="M1757 3453 c-16 -16 -4 -48 34 -91 42 -48 55 -55 77 -39 21 16 13 43
-29 91 -38 42 -66 56 -82 39z"/>
<path d="M2485 3410 c-39 -49 -45 -77 -22 -92 18 -12 25 -10 48 15 51 53 71
86 64 107 -11 36 -47 24 -90 -30z"/>
<path d="M2058 3320 c-72 -22 -117 -50 -163 -102 -60 -66 -88 -139 -92 -236
-1 -45 2 -93 7 -106 6 -16 4 -40 -6 -72 -8 -27 -17 -71 -20 -99 -4 -27 -8 -51
-9 -53 -2 -2 -24 -5 -49 -7 -54 -5 -53 4 4 36 42 24 55 64 24 76 -32 12 -154
-63 -139 -87 26 -42 -93 40 -124 85 -28 42 -37 44 -46 7 -19 -90 -7 -167 40
-248 38 -65 99 -119 180 -159 138 -68 134 -68 893 -72 l683 -4 52 24 c105 50
159 131 160 243 1 107 -68 213 -160 246 -27 10 -34 19 -38 47 -29 182 -117
316 -258 395 -158 89 -353 89 -506 1 l-44 -26 -26 24 c-102 94 -238 126 -363
87z"/>
<path d="M1621 3282 c-13 -25 -5 -35 61 -71 63 -35 91 -33 86 7 -2 18 -16 34
-48 53 -53 32 -86 36 -99 11z"/>
<path d="M1551 3088 c-12 -32 3 -46 57 -54 26 -4 55 -8 64 -10 10 -1 25 4 33
12 24 25 3 49 -55 62 -73 17 -89 15 -99 -10z"/>
<path d="M1603 2910 c-44 -10 -62 -27 -56 -50 7 -27 22 -30 92 -15 73 15 82
22 70 53 -9 24 -42 28 -106 12z"/>
<path d="M2566 2158 c2 -145 1 -137 24 -133 19 4 25 -6 20 -30 -1 -5 -3 -17
-5 -25 -2 -8 -11 -48 -19 -89 -9 -40 -19 -78 -23 -85 -4 -7 -2 -8 5 -1 15 14
182 316 182 329 0 4 -10 7 -22 6 -72 -6 -72 -7 -33 70 l35 70 -83 0 -83 0 2
-112z"/>
<path d="M2308 2221 c-83 -53 -89 -128 -11 -147 19 -5 31 0 51 19 21 22 27 38
30 92 5 77 -1 80 -70 36z"/>
<path d="M2982 2209 c-77 -45 -102 -99 -63 -138 28 -28 62 -27 91 4 20 21 24
36 24 87 1 34 -3 62 -9 64 -5 1 -25 -6 -43 -17z"/>
<path d="M1737 1773 c-3 -4 -18 -33 -35 -63 -16 -30 -43 -81 -61 -113 -17 -32
-29 -63 -26 -68 10 -15 75 -11 81 6 8 19 80 21 87 2 5 -13 87 -24 87 -12 0 15
-129 255 -133 248z m13 -143 c9 -17 8 -20 -9 -20 -14 0 -18 5 -14 20 3 11 7
20 9 20 2 0 8 -9 14 -20z"/>
<path d="M1006 1763 c-4 -4 97 -240 106 -248 3 -3 21 20 42 50 20 30 38 55 41
55 3 0 21 -25 41 -55 21 -30 38 -54 40 -52 6 5 104 239 104 247 0 4 -19 7 -42
6 -43 -2 -43 -3 -63 -58 l-20 -55 -28 58 c-16 33 -30 59 -33 59 -2 0 -17 -26
-33 -57 -19 -39 -31 -53 -35 -43 -3 8 -12 33 -19 55 -13 38 -16 40 -56 40 -23
1 -43 -1 -45 -2z"/>
<path d="M1410 1644 l0 -122 84 0 84 0 4 29 c4 26 2 29 -26 30 -63 2 -71 4
-74 19 -2 12 6 16 30 17 71 2 70 1 66 31 -3 25 -6 27 -47 27 -27 0 -46 5 -48
13 -5 12 23 16 73 13 17 -2 23 5 26 28 3 17 2 32 -1 32 -3 1 -43 2 -88 3 l-83
2 0 -122z"/>
<path d="M1852 1730 c3 -33 5 -35 36 -32 l32 4 0 -91 0 -90 38 2 37 2 -1 80
c0 85 5 95 48 95 25 0 28 3 24 32 l-3 33 -107 0 -107 0 3 -35z"/>
<path d="M2089 1743 c0 -13 -1 -39 -1 -58 0 -165 0 -165 26 -165 44 0 51 8 49
53 -2 46 -6 44 70 38 13 -1 17 -10 17 -44 0 -42 1 -43 34 -45 20 -2 35 3 38
10 2 7 4 62 4 123 l-1 109 -37 1 -38 1 0 -43 0 -43 -44 0 c-42 0 -45 2 -44 28
1 55 -1 58 -37 58 -30 0 -35 -4 -36 -23z"/>
<path d="M2376 1760 c-3 -5 0 -218 3 -231 0 -4 39 -7 87 -7 l85 1 -3 30 c-3
29 -5 31 -48 31 -34 1 -45 5 -48 18 -3 14 5 17 39 16 43 0 60 12 52 41 -3 14
-14 17 -49 16 -31 -2 -44 2 -44 11 0 13 36 19 83 14 15 -1 18 4 14 32 l-3 33
-83 0 c-46 0 -84 -2 -85 -5z"/>
<path d="M2601 1761 c-6 -4 -9 -49 -8 -121 l2 -115 35 0 c33 0 35 2 40 40 l6
40 22 -42 c21 -40 24 -42 67 -41 l44 1 -29 42 c-27 39 -28 44 -14 56 39 32 38
98 -3 124 -25 17 -142 28 -162 16z m109 -71 c0 -5 0 -13 1 -17 0 -4 -9 -10
-20 -15 -18 -6 -21 -3 -21 17 0 18 5 25 20 25 11 0 20 -4 20 -10z"/>
<path d="M2939 1763 c-1 -11 -1 -160 0 -206 1 -37 2 -38 36 -35 l35 2 0 53 0
53 72 -55 c39 -30 74 -55 78 -55 5 0 6 214 1 242 0 4 -16 6 -33 4 -35 -4 -33
2 -37 -89 -1 -14 -12 -10 -58 25 -32 24 -64 49 -71 56 -15 14 -22 15 -23 5z"/>
<path d="M3221 1760 c-5 -4 -7 -178 -2 -227 0 -8 15 -13 36 -13 l35 0 0 124 0
124 -31 -2 c-17 0 -34 -3 -38 -6z"/>
<path d="M3343 1648 l2 -123 35 0 c34 0 35 1 36 40 2 66 2 66 27 46 12 -11 46
-38 75 -61 l54 -42 -23 -24 c-12 -13 -20 -26 -18 -28 12 -12 88 -22 115 -14
53 14 57 26 57 181 l0 142 -39 0 -39 0 -5 -130 c-5 -122 -6 -130 -25 -130 -19
0 -20 8 -23 131 l-3 131 -30 1 c-35 1 -48 -22 -42 -76 4 -39 4 -39 -83 30 -34
26 -64 48 -67 48 -3 0 -5 -55 -4 -122z"/>
<path d="M3793 1650 c-35 -65 -63 -121 -63 -124 0 -12 82 -2 87 11 7 18 79 17
86 -1 4 -9 21 -14 51 -14 l45 0 -64 121 c-35 67 -67 123 -72 124 -4 2 -36 -51
-70 -117z m80 -20 c4 -15 0 -20 -14 -20 -17 0 -18 3 -9 20 6 11 12 20 14 20 2
0 6 -9 9 -20z"/>
</g>
</svg>
